Coordinates
version=1
nRows=19
nColumns=24
inDegrees=yes

Units are S.I. units (second, meters, Newtons, ...)
Angles are in degrees.

endheader
time	pelvis_tilt	pelvis_list	pelvis_rotation	pelvis_tx	pelvis_ty	pelvis_tz	hip_flexion_r	hip_adduction_r	hip_rotation_r	knee_angle_r	ankle_angle_r	subtalar_angle_r	mtp_angle_r	hip_flexion_l	hip_adduction_l	hip_rotation_l	knee_angle_l	ankle_angle_l	subtalar_angle_l	mtp_angle_l	lumbar_extension	lumbar_bending	lumbar_rotation
      4.04000000	     -8.12715569	    -11.18192772	     -1.84444702	     -1.54926376	     -0.02452099	     -0.29846740	     14.87375435	     15.07114034	      3.21375580	    -18.66044114	      4.35602547	     -0.78129061	      8.97537291	     27.20989459	    -16.77809014	     -3.80278042	    -66.01537158	     -2.84880633	      2.67839801	     -1.64639985	      7.85428236	     10.21728320	     -6.50448287
      4.04500000	     -7.95692272	    -10.82941932	     -1.92310069	     -1.54320187	     -0.02338100	     -0.29787391	     13.93882947	     14.82536588	      3.81056003	    -18.17102739	      4.41197923	     -1.26977736	      8.38700366	     27.69501301	    -16.42712486	     -4.13982424	    -65.29679090	     -2.45219982	      2.98200817	     -1.27132126	      7.65344943	      9.83878199	     -6.07508426
      4.05000000	     -7.80637462	    -10.50459413	     -1.99674982	     -1.53717199	     -0.02235075	     -0.29732281	     13.03048953	     14.59137990	      4.37973489	    -17.68458334	      4.50085882	     -1.70023374	      7.75987509	     28.19043035	    -16.08994664	     -4.45360670	    -64.51602754	     -2.05051133	      3.26820696	     -0.93207296	      7.47255762	      9.49387385	     -5.66666906
      4.05500000	     -7.67328300	    -10.18248717	     -2.10245358	     -1.53113685	     -0.02138160	     -0.29673958	     12.15723123	     14.34402434	      4.81301716	    -17.21202700	      4.56791434	     -2.02507559	      7.27149590	     28.66709000	    -15.77991998	     -4.82654576	    -63.65982855	     -1.64051139	      3.57282263	     -0.70020238	      7.31214902	      9.15013578	     -5.25025472
      4.06000000	     -7.51429632	     -9.90594879	     -2.17886146	     -1.52512264	     -0.02047092	     -0.29623774	     11.22964162	     14.12633948	      5.28828820	    -16.68340142	      4.63601062	     -2.36011087	      6.73389236	     29.11898380	    -15.49046473	     -5.14521847	    -62.75542880	     -1.28032862	      3.83550548	     -0.55581183	      7.12443506	      8.86171038	     -4.83589178
      4.06500000	     -7.38719485	     -9.65392543	     -2.26362729	     -1.51910676	     -0.01968715	     -0.29575871	     10.35644225	     13.91547682	      5.64098095	    -16.17848189	      4.70741811	     -2.59687617	      6.30696473	     29.57737182	    -15.22103999	     -5.46096892	    -61.78359319	     -0.86828150	      4.05719333	     -0.48260788	      6.97453207	      8.59605423	     -4.46136908
      4.07000000	     -7.25168577	     -9.43611166	     -2.34089496	     -1.51309387	     -0.01897413	     -0.29533517	      9.46227630	     13.72154791	      5.96183445	    -15.64146011	      4.77390116	     -2.78328074	      5.93350244	     30.01364610	    -14.97602054	     -5.75482206	    -60.75796861	     -0.47977420	      4.23896476	     -0.50140366	      6.81694333	      8.37306521	     -4.08765222
      4.07500000	     -7.08252534	     -9.26233451	     -2.41406366	     -1.50708547	     -0.01831748	     -0.29496745	      8.51464654	     13.55950389	      6.30212289	    -15.07322709	      4.84394187	     -2.93740138	      5.55690999	     30.40105968	    -14.76767997	     -6.02859153	    -59.68861036	     -0.10106117	      4.38283400	     -0.64686018	      6.62107835	      8.20938144	     -3.69859434
      4.08000000	     -6.94537559	     -9.10400105	     -2.48319879	     -1.50107037	     -0.01777704	     -0.29462073	      7.61864278	     13.39845137	      6.52657343	    -14.52232049	      4.91077723	     -3.01879103	      5.28472714	     30.79867052	    -14.56774211	     -6.29082299	    -58.55476460	      0.30698775	      4.49003833	     -0.85997975	      6.46622619	      8.05215831	     -3.34541084
      4.08500000	     -6.80996838	     -8.96232918	     -2.54987713	     -1.49505458	     -0.01731569	     -0.29431677	      6.73495169	     13.24246640	      6.68970844	    -13.98258581	      4.96472694	     -3.05368810	      5.09400230	     31.17088742	    -14.37478928	     -6.54077710	    -57.35645075	      0.73331637	      4.55837580	     -1.13945109	      6.31434189	      7.91706679	     -3.01343011
      4.09000000	     -6.66826113	     -8.84379340	     -2.60374531	     -1.48903999	     -0.01692726	     -0.29407613	      5.84257377	     13.09693831	      6.82600908	    -13.43237894	      5.02056104	     -3.04968925	      4.96337170	     31.52062965	    -14.19266968	     -6.76749327	    -56.10869482	      1.15847726	      4.61251672	     -1.51699939	      6.15780451	      7.81268874	     -2.68150108
      4.09500000	     -6.52977658	     -8.74004813	     -2.65287833	     -1.48303493	     -0.01662305	     -0.29385354	      4.96369256	     12.96011284	      6.92379649	    -12.89441279	      5.07789192	     -3.01215566	      4.89050411	     31.85335832	    -14.01823260	     -6.97583697	    -54.80998132	      1.59791313	      4.66018697	     -1.98239196	      6.00476221	      7.71799183	     -2.35962381
      4.10000000	     -6.39448180	     -8.63922335	     -2.69023777	     -1.47702654	     -0.01638959	     -0.29370764	      4.09948401	     12.81584885	      6.98807451	    -12.37167292	      5.13764787	     -2.94793562	      4.86945496	     32.16465946	    -13.83547374	     -7.18205498	    -53.45462065	      2.06072554	      4.71915701	     -2.52810834	      5.85670246	      7.63770091	     -2.04777516
      4.10500000	     -6.26851124	     -8.54885360	     -2.72243509	     -1.47104455	     -0.01623931	     -0.29357151	      3.26455114	     12.68053225	      7.02658816	    -11.87892139	      5.20347322	     -2.85798430	      4.89946001	     32.46462815	    -13.65156265	     -7.35326382	    -52.04901687	      2.54767688	      4.80867617	     -3.14906940	      5.71751197	      7.56430918	     -1.74067966
      4.11000000	     -6.15844120	     -8.45491850	     -2.74701205	     -1.46507952	     -0.01616401	     -0.29350983	      2.46763039	     12.53435150	      7.03276162	    -11.41698906	      5.27140809	     -2.74994121	      4.96923199	     32.75588576	    -13.45654161	     -7.53018363	    -50.58607902	      3.04948174	      4.93830545	     -3.80285259	      5.59165659	      7.50023927	     -1.44755469
      4.11500000	     -6.06485361	     -8.37027937	     -2.76326386	     -1.45916519	     -0.01616992	     -0.29348523	      1.71710403	     12.39665476	      7.01818193	    -11.00013227	      5.34243736	     -2.62636560	      5.08115492	     33.04312363	    -13.24977091	     -7.64592970	    -49.07113992	      3.57532864	      5.14027227	     -4.49567388	      5.47668392	      7.44678856	     -1.14083371
      4.12000000	     -6.04629838	     -8.27478536	     -2.78149829	     -1.45320225	     -0.01629357	     -0.29342927	      1.05607929	     12.25476296	      6.97434194	    -10.59948773	      5.42523114	     -2.51468414	      5.16600704	     33.38048274	    -13.05425337	     -7.81626661	    -47.48603152	      3.99695318	      5.38701568	     -4.93595256	      5.45670663	      7.37116554	     -0.91257793
      4.12500000	     -5.95217942	     -8.17175223	     -2.79266776	     -1.44733808	     -0.01637821	     -0.29346137	      0.35236130	     12.09402681	      6.93041638	    -10.26136278	      5.51446557	     -2.35889655	      5.31594295	     33.59666885	    -12.81604782	     -7.91379265	    -45.83667778	      4.48853142	      5.72661103	     -5.52436341	      5.33081962	      7.30196827	     -0.59436516
      4.13000000	     -5.92056431	     -8.06408746	     -2.80203933	     -1.44144447	     -0.01656936	     -0.29350555	     -0.26972664	     11.93132535	      6.86639162	     -9.94856659	      5.60740131	     -2.20403928	      5.47931964	     33.85238708	    -12.58277159	     -8.04105988	    -44.13691345	      4.95268899	      6.16737634	     -6.03122215	      5.28165871	      7.22620891	     -0.33074898
